<?xml version="1.0" encoding="utf-8"?>
<!-- Generator: Adobe Illustrator 22.1.0, SVG Export Plug-In . SVG Version: 6.00 Build 0)  -->
<svg version="1.1" id="Layer_1" xmlns="http://www.w3.org/2000/svg" xmlns:xlink="http://www.w3.org/1999/xlink" x="0px" y="0px"
	 viewBox="0 0 318.6 280.7" style="enable-background:new 0 0 318.6 280.7;" xml:space="preserve">
<style type="text/css">
	.st0{fill:#282A70;}
</style>
<path class="st0" d="M315.6,113.5c-4-4-10.5-4-14.4,0l-20.9,20.9C277.3,59.7,215.5,0,140.4,0C63.2,0,0,62.7,0,140.4
	c0,77.2,62.7,140.4,140.4,140.4c52.8,0,100.6-29.4,124.4-76.2c2.5-5.5,0.5-11.4-4.5-14.4c-5.5-2.5-11.4-0.5-14.4,4.5
	c-20.4,39.8-61.2,64.7-105.5,64.7c-65.7,0-119-53.3-119-119s53.3-119,119-119c63.7,0,115.5,50.3,118.5,113L238,113.5
	c-4-4-10.5-4-14.4,0c-4,4-4,10.5,0,14.4l38.3,38.3l0.5,0.5c2,2,4.5,3,7.5,3c2.5,0,5.5-1,7.5-3l0.5-0.5l38.3-38.3
	C319.6,123.9,319.6,117.5,315.6,113.5z"/>
</svg>
